<mxfile host="app.diagrams.net" agent="Mozilla/5.0 (Windows NT 10.0; Win64; x64) AppleWebKit/537.36 (KHTML, like Gecko) Chrome/131.0.0.0 Safari/537.36" version="25.0.3">
  <diagram name="第 1 页" id="P8P_uIRXdVl_cTlSzblC">
    <mxGraphModel dx="1434" dy="1915" grid="1" gridSize="10" guides="1" tooltips="1" connect="1" arrows="1" fold="1" page="1" pageScale="1" pageWidth="827" pageHeight="1169" math="0" shadow="0">
      <root>
        <mxCell id="0" />
        <mxCell id="1" parent="0" />
        <mxCell id="Xw_Vf4gxc4qynXSVzEaS-1" value="业务经理/售前" style="rounded=0;whiteSpace=wrap;html=1;" vertex="1" parent="1">
          <mxGeometry x="90" y="100" width="120" height="40" as="geometry" />
        </mxCell>
        <mxCell id="Xw_Vf4gxc4qynXSVzEaS-2" value="产品经理" style="rounded=0;whiteSpace=wrap;html=1;" vertex="1" parent="1">
          <mxGeometry x="260" y="100" width="120" height="40" as="geometry" />
        </mxCell>
        <mxCell id="Xw_Vf4gxc4qynXSVzEaS-10" style="edgeStyle=orthogonalEdgeStyle;rounded=0;orthogonalLoop=1;jettySize=auto;html=1;exitX=0.5;exitY=1;exitDx=0;exitDy=0;entryX=0.371;entryY=-0.1;entryDx=0;entryDy=0;entryPerimeter=0;" edge="1" parent="1" source="Xw_Vf4gxc4qynXSVzEaS-3" target="Xw_Vf4gxc4qynXSVzEaS-6">
          <mxGeometry relative="1" as="geometry">
            <mxPoint x="490" y="230" as="targetPoint" />
          </mxGeometry>
        </mxCell>
        <mxCell id="Xw_Vf4gxc4qynXSVzEaS-3" value="项目经理&lt;span style=&quot;color: rgba(0, 0, 0, 0); font-family: monospace; font-size: 0px; text-align: start; text-wrap-mode: nowrap;&quot;&gt;%3CmxGraphModel%3E%3Croot%3E%3CmxCell%20id%3D%220%22%2F%3E%3CmxCell%20id%3D%221%22%20parent%3D%220%22%2F%3E%3CmxCell%20id%3D%222%22%20value%3D%22%E4%BA%A7%E5%93%81%E7%BB%8F%E7%90%86%22%20style%3D%22rounded%3D0%3BwhiteSpace%3Dwrap%3Bhtml%3D1%3B%22%20vertex%3D%221%22%20parent%3D%221%22%3E%3CmxGeometry%20x%3D%22260%22%20y%3D%22100%22%20width%3D%22120%22%20height%3D%2240%22%20as%3D%22geometry%22%2F%3E%3C%2FmxCell%3E%3C%2Froot%3E%3C%2FmxGraphModel%3E&lt;/span&gt;" style="rounded=0;whiteSpace=wrap;html=1;" vertex="1" parent="1">
          <mxGeometry x="430" y="100" width="120" height="40" as="geometry" />
        </mxCell>
        <mxCell id="Xw_Vf4gxc4qynXSVzEaS-4" value="架构师/技术经理" style="rounded=0;whiteSpace=wrap;html=1;" vertex="1" parent="1">
          <mxGeometry x="600" y="100" width="120" height="40" as="geometry" />
        </mxCell>
        <mxCell id="Xw_Vf4gxc4qynXSVzEaS-16" style="edgeStyle=orthogonalEdgeStyle;rounded=0;orthogonalLoop=1;jettySize=auto;html=1;" edge="1" parent="1" source="Xw_Vf4gxc4qynXSVzEaS-5" target="Xw_Vf4gxc4qynXSVzEaS-4">
          <mxGeometry relative="1" as="geometry" />
        </mxCell>
        <mxCell id="Xw_Vf4gxc4qynXSVzEaS-5" value="技术团队" style="rounded=0;whiteSpace=wrap;html=1;" vertex="1" parent="1">
          <mxGeometry x="770" y="100" width="120" height="40" as="geometry" />
        </mxCell>
        <mxCell id="Xw_Vf4gxc4qynXSVzEaS-6" value="产品" style="rounded=0;whiteSpace=wrap;html=1;" vertex="1" parent="1">
          <mxGeometry x="260" y="240" width="620" height="40" as="geometry" />
        </mxCell>
        <mxCell id="Xw_Vf4gxc4qynXSVzEaS-9" style="edgeStyle=orthogonalEdgeStyle;rounded=0;orthogonalLoop=1;jettySize=auto;html=1;exitX=0.5;exitY=1;exitDx=0;exitDy=0;entryX=0.098;entryY=0.025;entryDx=0;entryDy=0;entryPerimeter=0;" edge="1" parent="1" source="Xw_Vf4gxc4qynXSVzEaS-2" target="Xw_Vf4gxc4qynXSVzEaS-6">
          <mxGeometry relative="1" as="geometry" />
        </mxCell>
        <mxCell id="Xw_Vf4gxc4qynXSVzEaS-13" style="edgeStyle=orthogonalEdgeStyle;rounded=0;orthogonalLoop=1;jettySize=auto;html=1;entryX=0.645;entryY=-0.075;entryDx=0;entryDy=0;entryPerimeter=0;" edge="1" parent="1" source="Xw_Vf4gxc4qynXSVzEaS-4" target="Xw_Vf4gxc4qynXSVzEaS-6">
          <mxGeometry relative="1" as="geometry" />
        </mxCell>
        <mxCell id="Xw_Vf4gxc4qynXSVzEaS-14" style="edgeStyle=orthogonalEdgeStyle;rounded=0;orthogonalLoop=1;jettySize=auto;html=1;entryX=0.919;entryY=0.075;entryDx=0;entryDy=0;entryPerimeter=0;" edge="1" parent="1" source="Xw_Vf4gxc4qynXSVzEaS-5" target="Xw_Vf4gxc4qynXSVzEaS-6">
          <mxGeometry relative="1" as="geometry" />
        </mxCell>
        <mxCell id="Xw_Vf4gxc4qynXSVzEaS-15" value="做什么？&lt;div&gt;为什么？&lt;/div&gt;&lt;div&gt;WHY？&lt;/div&gt;&lt;div&gt;WHAT？&lt;/div&gt;" style="text;html=1;align=center;verticalAlign=middle;whiteSpace=wrap;rounded=0;" vertex="1" parent="1">
          <mxGeometry x="260" y="180" width="60" height="30" as="geometry" />
        </mxCell>
        <mxCell id="Xw_Vf4gxc4qynXSVzEaS-17" value="HOW？" style="text;html=1;align=center;verticalAlign=middle;whiteSpace=wrap;rounded=0;" vertex="1" parent="1">
          <mxGeometry x="550" y="170" width="60" height="30" as="geometry" />
        </mxCell>
        <mxCell id="Xw_Vf4gxc4qynXSVzEaS-20" style="edgeStyle=orthogonalEdgeStyle;rounded=0;orthogonalLoop=1;jettySize=auto;html=1;exitX=0.5;exitY=0;exitDx=0;exitDy=0;strokeColor=#9d6262;dashed=1;" edge="1" parent="1">
          <mxGeometry relative="1" as="geometry">
            <mxPoint x="659" y="-10" as="targetPoint" />
            <mxPoint x="659" y="80" as="sourcePoint" />
          </mxGeometry>
        </mxCell>
        <mxCell id="Xw_Vf4gxc4qynXSVzEaS-18" value="" style="rounded=1;whiteSpace=wrap;html=1;fillColor=none;dashed=1;strokeColor=#a06664;strokeWidth=2;" vertex="1" parent="1">
          <mxGeometry x="560" y="80" width="180" height="80" as="geometry" />
        </mxCell>
        <mxCell id="Xw_Vf4gxc4qynXSVzEaS-19" value="" style="rounded=1;whiteSpace=wrap;html=1;fillColor=none;dashed=1;strokeWidth=2;strokeColor=#66FFB3;" vertex="1" parent="1">
          <mxGeometry x="414" y="80" width="176" height="80" as="geometry" />
        </mxCell>
        <mxCell id="Xw_Vf4gxc4qynXSVzEaS-21" style="edgeStyle=orthogonalEdgeStyle;rounded=0;orthogonalLoop=1;jettySize=auto;html=1;exitX=0.5;exitY=0;exitDx=0;exitDy=0;strokeColor=#66ffb3;dashed=1;" edge="1" parent="1">
          <mxGeometry relative="1" as="geometry">
            <mxPoint x="480" y="-10" as="targetPoint" />
            <mxPoint x="480" y="80" as="sourcePoint" />
            <Array as="points">
              <mxPoint x="480" y="30" />
              <mxPoint x="480" y="30" />
            </Array>
          </mxGeometry>
        </mxCell>
        <mxCell id="Xw_Vf4gxc4qynXSVzEaS-23" value="" style="rounded=1;whiteSpace=wrap;html=1;fillColor=none;dashed=1;strokeColor=#a06664;strokeWidth=2;" vertex="1" parent="1">
          <mxGeometry x="560" y="-230" width="180" height="220" as="geometry" />
        </mxCell>
        <mxCell id="Xw_Vf4gxc4qynXSVzEaS-26" style="edgeStyle=orthogonalEdgeStyle;rounded=0;orthogonalLoop=1;jettySize=auto;html=1;entryX=0.5;entryY=0;entryDx=0;entryDy=0;" edge="1" parent="1" source="Xw_Vf4gxc4qynXSVzEaS-24" target="Xw_Vf4gxc4qynXSVzEaS-25">
          <mxGeometry relative="1" as="geometry" />
        </mxCell>
        <mxCell id="Xw_Vf4gxc4qynXSVzEaS-24" value="来自产品经理的需求资料" style="rounded=0;whiteSpace=wrap;html=1;" vertex="1" parent="1">
          <mxGeometry x="590" y="-207.5" width="120" height="30" as="geometry" />
        </mxCell>
        <mxCell id="Xw_Vf4gxc4qynXSVzEaS-28" style="edgeStyle=orthogonalEdgeStyle;rounded=0;orthogonalLoop=1;jettySize=auto;html=1;entryX=0.5;entryY=0;entryDx=0;entryDy=0;" edge="1" parent="1" source="Xw_Vf4gxc4qynXSVzEaS-25" target="Xw_Vf4gxc4qynXSVzEaS-27">
          <mxGeometry relative="1" as="geometry" />
        </mxCell>
        <mxCell id="Xw_Vf4gxc4qynXSVzEaS-25" value="系统架构&lt;div&gt;模块架构&lt;/div&gt;&lt;div&gt;组件架构&lt;/div&gt;" style="rounded=0;whiteSpace=wrap;html=1;" vertex="1" parent="1">
          <mxGeometry x="590" y="-147.5" width="120" height="60" as="geometry" />
        </mxCell>
        <mxCell id="Xw_Vf4gxc4qynXSVzEaS-29" value="" style="rounded=1;whiteSpace=wrap;html=1;fillColor=none;dashed=1;strokeColor=#66ffb3;strokeWidth=2;" vertex="1" parent="1">
          <mxGeometry x="390" y="-100" width="330" height="90" as="geometry" />
        </mxCell>
        <mxCell id="Xw_Vf4gxc4qynXSVzEaS-36" style="edgeStyle=orthogonalEdgeStyle;rounded=0;orthogonalLoop=1;jettySize=auto;html=1;entryX=1;entryY=0.5;entryDx=0;entryDy=0;" edge="1" parent="1" source="Xw_Vf4gxc4qynXSVzEaS-27" target="Xw_Vf4gxc4qynXSVzEaS-34">
          <mxGeometry relative="1" as="geometry" />
        </mxCell>
        <mxCell id="Xw_Vf4gxc4qynXSVzEaS-27" value="开发排期" style="rounded=0;whiteSpace=wrap;html=1;" vertex="1" parent="1">
          <mxGeometry x="590" y="-62.5" width="120" height="30" as="geometry" />
        </mxCell>
        <mxCell id="Xw_Vf4gxc4qynXSVzEaS-34" value="形成计划并执行计划" style="rounded=0;whiteSpace=wrap;html=1;" vertex="1" parent="1">
          <mxGeometry x="412" y="-62.5" width="120" height="30" as="geometry" />
        </mxCell>
        <mxCell id="Xw_Vf4gxc4qynXSVzEaS-38" value="" style="shape=curlyBracket;whiteSpace=wrap;html=1;rounded=1;labelPosition=left;verticalLabelPosition=middle;align=right;verticalAlign=middle;" vertex="1" parent="1">
          <mxGeometry x="260" y="350" width="20" height="120" as="geometry" />
        </mxCell>
        <mxCell id="Xw_Vf4gxc4qynXSVzEaS-39" value="" style="shape=curlyBracket;whiteSpace=wrap;html=1;rounded=1;labelPosition=left;verticalLabelPosition=middle;align=right;verticalAlign=middle;" vertex="1" parent="1">
          <mxGeometry x="90" y="350" width="20" height="120" as="geometry" />
        </mxCell>
        <mxCell id="Xw_Vf4gxc4qynXSVzEaS-40" value="业务架构或者说功能架构" style="text;html=1;align=center;verticalAlign=middle;whiteSpace=wrap;rounded=0;" vertex="1" parent="1">
          <mxGeometry x="110" y="360" width="60" height="30" as="geometry" />
        </mxCell>
        <mxCell id="Xw_Vf4gxc4qynXSVzEaS-41" value="需求清单" style="text;html=1;align=center;verticalAlign=middle;whiteSpace=wrap;rounded=0;" vertex="1" parent="1">
          <mxGeometry x="280" y="350" width="60" height="30" as="geometry" />
        </mxCell>
        <mxCell id="Xw_Vf4gxc4qynXSVzEaS-42" value="需求规格书" style="text;html=1;align=center;verticalAlign=middle;whiteSpace=wrap;rounded=0;" vertex="1" parent="1">
          <mxGeometry x="280" y="390" width="70" height="30" as="geometry" />
        </mxCell>
        <mxCell id="Xw_Vf4gxc4qynXSVzEaS-43" value="" style="shape=curlyBracket;whiteSpace=wrap;html=1;rounded=1;labelPosition=left;verticalLabelPosition=middle;align=right;verticalAlign=middle;" vertex="1" parent="1">
          <mxGeometry x="630" y="350" width="20" height="120" as="geometry" />
        </mxCell>
        <mxCell id="Xw_Vf4gxc4qynXSVzEaS-44" value="" style="shape=curlyBracket;whiteSpace=wrap;html=1;rounded=1;labelPosition=left;verticalLabelPosition=middle;align=right;verticalAlign=middle;" vertex="1" parent="1">
          <mxGeometry x="450" y="350" width="20" height="120" as="geometry" />
        </mxCell>
        <mxCell id="Xw_Vf4gxc4qynXSVzEaS-45" value="系统架构" style="text;html=1;align=center;verticalAlign=middle;whiteSpace=wrap;rounded=0;" vertex="1" parent="1">
          <mxGeometry x="640" y="350" width="70" height="30" as="geometry" />
        </mxCell>
        <mxCell id="Xw_Vf4gxc4qynXSVzEaS-46" value="模块架构" style="text;html=1;align=center;verticalAlign=middle;whiteSpace=wrap;rounded=0;" vertex="1" parent="1">
          <mxGeometry x="640" y="380" width="70" height="30" as="geometry" />
        </mxCell>
        <mxCell id="Xw_Vf4gxc4qynXSVzEaS-47" value="组件设计" style="text;html=1;align=center;verticalAlign=middle;whiteSpace=wrap;rounded=0;" vertex="1" parent="1">
          <mxGeometry x="640" y="410" width="70" height="30" as="geometry" />
        </mxCell>
      </root>
    </mxGraphModel>
  </diagram>
</mxfile>
